<svg xmlns="http://www.w3.org/2000/svg" viewBox="0 0 16 16"><defs><style>.cls-1{fill:#fff;}.cls-2{fill:#144a7f;}</style></defs><g id="Layer_2" data-name="Layer 2"><g id="Layer_1-2" data-name="Layer 1"><rect class="cls-1" width="16" height="16" rx="3.91"/><path class="cls-2" d="M13.47,8.4l-1.08-3a3.4,3.4,0,0,1-.23-1.51l.08-1.31a1.22,1.22,0,0,0-.9-1.26A1.25,1.25,0,0,0,9.86,2l-.3.72a6,6,0,0,0-.43,2.71v.22L5.82,4.32a1.42,1.42,0,0,0-1.07,0A1.4,1.4,0,0,0,4,5.08a1.34,1.34,0,0,0-.07.86,1.42,1.42,0,0,0-1,.83,1.44,1.44,0,0,0,.12,1.29,1.37,1.37,0,0,0-.56.65,1.42,1.42,0,0,0,0,1.07A1.34,1.34,0,0,0,3,10.4a1.5,1.5,0,0,0-.35.51,1.39,1.39,0,0,0,.75,1.82h0l1.52.62a1.23,1.23,0,0,0,.42.1.38.38,0,0,0,.18.15l2.13.88a3.72,3.72,0,0,0,1.4.28,3.73,3.73,0,0,0,3.42-2.29l.95-2.29a2.54,2.54,0,0,0,.05-1.78M8,13.72l-1.55-.64a1.63,1.63,0,0,0,.33-.49,1.39,1.39,0,0,0,0-1.06,1.38,1.38,0,0,0,.75-.75,1.42,1.42,0,0,0,0-1.07A1.39,1.39,0,0,0,8.25,9a1.42,1.42,0,0,0,0-1.07A1.36,1.36,0,0,0,9,7.14a1.27,1.27,0,0,0,.1-.58l.34.14A.37.37,0,0,0,10,6.29V5.41a5.19,5.19,0,0,1,.37-2.34l.3-.71a.43.43,0,0,1,.5-.28.4.4,0,0,1,.3.42l-.08,1.31a4.28,4.28,0,0,0,.28,1.84l1.07,3a1.66,1.66,0,0,1,0,1.2l-.94,2.29A2.9,2.9,0,0,1,8,13.74l0,0M5.24,12.59,3.73,12a.56.56,0,0,1-.32-.74h0a.58.58,0,0,1,.75-.31l1.52.62a.59.59,0,0,1,.31.31.56.56,0,0,1,0,.44.59.59,0,0,1-.31.31.56.56,0,0,1-.44,0M5.5,5.08l2.43,1a.57.57,0,1,1-.44,1.06h0l-2.42-1a.59.59,0,0,1-.31-.31.56.56,0,0,1,0-.44.53.53,0,0,1,.31-.31.41.41,0,0,1,.22,0H5.5M4,8.71l2.43,1a.59.59,0,0,1,.31.31.57.57,0,0,1-.3.75.59.59,0,0,1-.45,0l-2.42-1a.53.53,0,0,1-.31-.31.54.54,0,0,1,0-.43h0a.56.56,0,0,1,.53-.36H4M7.18,7.9a.53.53,0,0,1,.31.31.54.54,0,0,1,0,.43A.56.56,0,0,1,6.78,9h0L4,7.83a.57.57,0,1,1,.44-1.06Z"/><path class="cls-2" d="M11.21,11.37a.36.36,0,0,0-.2-.48l-.24-.1A1.68,1.68,0,0,1,9.86,8.6a.34.34,0,0,0,0-.28.33.33,0,0,0-.2-.2.34.34,0,0,0-.28,0,.39.39,0,0,0-.2.2,2.42,2.42,0,0,0,1.31,3.16l.24.09a.34.34,0,0,0,.28,0,.39.39,0,0,0,.2-.2"/></g></g></svg>