<svg width="31" height="34" viewBox="0 0 31 34" fill="none" xmlns="http://www.w3.org/2000/svg">
<path d="M12.3929 11.5079V12.5309C12.3929 12.7866 12.6478 13.0423 12.9027 13.0423C13.1576 13.0423 13.4125 12.7866 13.4125 12.5309V11.5079C14.4321 11.2522 15.4517 10.9965 15.9615 10.485C16.4714 9.97354 16.9812 9.46208 16.9812 8.69489C16.9812 8.43915 16.7263 8.18342 16.7263 8.18342H15.4517C15.1968 8.18342 15.1968 8.18342 15.1968 8.43915C15.1968 8.69489 14.9419 9.20635 14.4321 9.46208C14.1772 9.71781 13.6674 9.71781 12.9027 9.71781C11.8831 9.71781 11.3733 9.46208 10.8635 8.95062C10.0988 8.43915 9.8439 7.67196 9.8439 6.64903C9.8439 5.6261 10.0988 4.85891 10.6086 4.34744C11.1184 3.83598 11.8831 3.58025 12.6478 3.32451C13.4125 3.32451 13.9223 3.32451 14.1772 3.58025C14.687 4.09171 14.9419 4.34744 15.1968 4.60317C15.1968 4.85891 15.4517 4.85891 15.4517 4.85891H16.7263C16.9812 4.85891 17.2361 4.60317 16.9812 4.34744C16.9812 3.83598 16.7263 3.06878 15.9615 2.55732C15.4517 2.04586 14.4321 1.79012 13.4125 1.53439V0.511464C13.4125 0.255732 13.1576 0 12.6478 0C12.3929 0 12.138 0.255732 12.138 0.511464V1.53439C10.8635 1.79012 9.589 2.30159 8.8243 3.06878C8.05959 4.34744 7.80469 5.37037 7.80469 6.64903C7.80469 7.92769 8.31449 9.20635 9.0792 9.97355C9.8439 10.9965 10.8635 11.5079 12.3929 11.5079Z" fill="#154A7F"/>
<path d="M31.0004 28.3862C30.7455 27.8748 29.9808 27.619 29.471 27.8748C28.4513 28.1305 27.4317 28.642 26.4121 28.8977C26.1572 28.8977 26.1572 28.8977 25.9023 29.1534C25.1376 26.5961 24.118 24.0388 23.3533 21.4815H23.0984C23.8631 20.97 24.118 20.2028 24.3729 19.1799C24.8827 16.8783 23.0984 14.8325 20.8043 14.8325C20.0396 14.8325 19.02 14.8325 18.2553 15.0882L15.1964 15.3439C12.1376 15.5996 9.3337 15.8554 6.27487 16.1111C5.76507 14.321 5.51017 12.7866 5.00036 11.2522L4.49056 8.95062C4.23566 8.18342 4.23566 7.41623 3.98076 6.90476C3.47095 4.85891 2.96115 3.06878 2.45134 1.02293C2.19644 0.511464 1.94154 0.255732 1.17683 0C0.66703 0 0.157227 0.511464 0.157227 0.767196C0.157227 1.02293 0.157227 1.53439 0.157227 1.79012C1.68664 7.67196 3.21605 13.8095 5.00036 19.6914C5.00036 20.4586 5.25527 21.2257 5.51017 21.9929C5.76507 22.7601 6.27487 23.2716 6.78468 23.5273C6.27487 25.3175 5.51017 27.3633 4.74546 29.4092C4.74546 29.4092 4.74546 29.4092 4.74546 29.6649C3.98076 29.4092 3.47095 29.1534 2.70625 29.1534C2.45134 29.1534 2.19644 29.1534 1.94154 29.1534C1.43174 29.1534 0.921932 29.6649 0.921932 30.1764C0.921932 30.6878 1.17683 31.1993 1.68664 31.455C2.45134 31.7108 3.21605 31.9665 3.98076 32.2222C7.54938 32.7337 11.118 33.2451 14.6866 33.2451C18.5102 33.2451 22.0788 32.7337 25.6474 31.7108C27.1768 31.1993 28.4513 30.6878 29.7259 30.1764C29.9808 30.1764 29.9808 30.1764 30.2357 29.9206C31.0004 29.6649 31.2553 28.8977 31.0004 28.3862ZM7.29448 18.4127C10.6082 18.157 13.9219 17.9012 17.4906 17.6455C18.5102 17.6455 19.5298 17.3898 20.5494 17.3898C21.3141 17.3898 21.8239 17.9012 21.8239 18.6684C21.8239 19.4356 21.3141 19.9471 20.5494 19.9471C18.0004 20.2028 15.4513 20.4586 12.9023 20.7143C11.3729 20.7143 9.5886 20.7143 7.80428 20.97C7.54938 20.2028 7.29448 19.4356 7.29448 18.4127C7.29448 18.6684 7.29448 18.6684 7.29448 18.4127ZM6.78468 30.1764V29.9206C7.54938 27.619 8.31409 25.5732 9.3337 23.2716L20.8043 22.2487C21.569 24.5503 22.5886 27.1076 23.3533 29.4092V29.6649C18.0004 31.1993 12.3925 30.9436 6.78468 30.1764Z" fill="#154A7F"/>
</svg>
